<?xml version="1.0" standalone="no"?><svg xmlns="http://www.w3.org/2000/svg" xmlns:xlink="http://www.w3.org/1999/xlink" style="isolation:isolate" viewBox="0 0 40 24" width="40" height="24"><defs></defs><g><g><circle vector-effect="non-scaling-stroke" cx="19.999999999999996" cy="12" r="9.999999999999993" fill="rgb(74,134,232)"/><g><path d=" M 25.172 12 L 17.586 17.172 L 17.586 12.094 L 17.586 6.828 L 25.172 12 Z " fill="rgb(255,255,255)"/><path d=" M 17.586 17.517 C 17.531 17.517 17.476 17.504 17.425 17.477 C 17.312 17.418 17.241 17.3 17.241 17.172 L 17.241 6.828 C 17.241 6.7 17.312 6.582 17.425 6.523 C 17.538 6.463 17.675 6.471 17.781 6.543 L 25.367 11.715 C 25.461 11.779 25.517 11.886 25.517 12 C 25.517 12.114 25.461 12.221 25.367 12.285 L 17.78 17.457 C 17.722 17.497 17.654 17.517 17.586 17.517 Z  M 17.931 7.48 L 17.931 16.52 L 24.56 12 L 17.931 7.48 Z " fill="rgb(255,255,255)"/></g></g></g></svg>