<?xml version="1.0" standalone="no"?><svg xmlns="http://www.w3.org/2000/svg" xmlns:xlink="http://www.w3.org/1999/xlink" style="isolation:isolate" viewBox="0 0 40 24" width="40" height="24"><defs></defs><g><path d=" M 18.242 3.875 L 18.145 4.383 L 17.773 6.238 C 17.178 6.473 16.641 6.802 16.152 7.195 L 14.336 6.57 L 13.848 6.414 L 13.594 6.863 L 12.344 9.012 L 12.09 9.461 L 12.461 9.793 L 13.867 11.023 C 13.816 11.343 13.75 11.663 13.75 12 C 13.75 12.337 13.816 12.657 13.867 12.977 L 12.461 14.207 L 12.09 14.539 L 12.344 14.988 L 13.594 17.137 L 13.848 17.586 L 14.336 17.43 L 16.152 16.805 C 16.641 17.198 17.178 17.527 17.773 17.762 L 18.145 19.617 L 18.242 20.125 L 21.758 20.125 L 21.855 19.617 L 22.227 17.762 C 22.822 17.527 23.359 17.198 23.848 16.805 L 25.664 17.43 L 26.152 17.586 L 26.406 17.137 L 27.656 14.988 L 27.91 14.539 L 27.539 14.207 L 26.133 12.977 C 26.184 12.657 26.25 12.337 26.25 12 C 26.25 11.663 26.184 11.343 26.133 11.023 L 27.539 9.793 L 27.91 9.461 L 27.656 9.012 L 26.406 6.863 L 26.152 6.414 L 25.664 6.57 L 23.848 7.195 C 23.359 6.802 22.822 6.473 22.227 6.238 L 21.855 4.383 L 21.758 3.875 L 18.242 3.875 Z  M 19.258 5.125 L 20.742 5.125 L 21.055 6.746 L 21.133 7.117 L 21.484 7.234 C 22.195 7.457 22.839 7.833 23.379 8.328 L 23.652 8.582 L 24.004 8.465 L 25.586 7.918 L 26.328 9.188 L 25.078 10.301 L 24.785 10.535 L 24.883 10.906 C 24.963 11.263 25 11.626 25 12 C 25 12.374 24.963 12.737 24.883 13.094 L 24.805 13.465 L 25.078 13.699 L 26.328 14.813 L 25.586 16.082 L 24.004 15.535 L 23.652 15.418 L 23.379 15.672 C 22.839 16.167 22.195 16.543 21.484 16.766 L 21.133 16.883 L 21.055 17.254 L 20.742 18.875 L 19.258 18.875 L 18.945 17.254 L 18.867 16.883 L 18.516 16.766 C 17.805 16.543 17.161 16.167 16.621 15.672 L 16.348 15.418 L 15.996 15.535 L 14.414 16.082 L 13.672 14.813 L 14.922 13.699 L 15.215 13.465 L 15.117 13.094 C 15.037 12.737 15 12.374 15 12 C 15 11.626 15.037 11.263 15.117 10.906 L 15.215 10.535 L 14.922 10.301 L 13.672 9.188 L 14.414 7.918 L 15.996 8.465 L 16.348 8.582 L 16.621 8.328 C 17.161 7.833 17.805 7.457 18.516 7.234 L 18.867 7.117 L 18.945 6.746 L 19.258 5.125 Z  M 20 8.875 C 18.281 8.875 16.875 10.281 16.875 12 C 16.875 13.719 18.281 15.125 20 15.125 C 21.719 15.125 23.125 13.719 23.125 12 C 23.125 10.281 21.719 8.875 20 8.875 Z  M 20 10.125 C 21.042 10.125 21.875 10.958 21.875 12 C 21.875 13.042 21.042 13.875 20 13.875 C 18.958 13.875 18.125 13.042 18.125 12 C 18.125 10.958 18.958 10.125 20 10.125 Z " fill="rgb(255,255,255)"/></g></svg>